# Shade 8 - Wavefront OBJ Exporter

o arm.obj

v 6.855191e-01 4.376037e+00 -6.805186e-01
v 6.855191e-01 4.376037e+00 6.805186e-01
v -6.755181e-01 4.376037e+00 6.805186e-01
v -6.755181e-01 4.376037e+00 -6.805186e-01
v 3.991538e-01 2.039624e-01 -4.173399e-01
v 3.991538e-01 2.039624e-01 4.173399e-01
v -3.891548e-01 2.039624e-01 4.173399e-01
v -3.891548e-01 2.039624e-01 -4.173399e-01
# 8 vertices

vn 0.000000 1.000000 0.000000
vn 0.000000 1.000000 0.000000
vn 0.000000 1.000000 0.000000
vn 0.000000 1.000000 0.000000
vn 0.000000 -1.000000 0.000000
vn 0.000000 -1.000000 0.000000
vn 0.000000 -1.000000 0.000000
vn 0.000000 -1.000000 0.000000
vn -0.997653 -0.068477 0.000000
vn -0.997653 -0.068477 0.000000
vn -0.997653 -0.068477 0.000000
vn -0.997653 -0.068477 0.000000
vn 0.000000 -0.062956 0.998016
vn 0.000000 -0.062956 0.998016
vn 0.000000 -0.062956 0.998016
vn 0.000000 -0.062956 0.998016
vn 0.997653 -0.068477 0.000000
vn 0.997653 -0.068477 0.000000
vn 0.997653 -0.068477 0.000000
vn 0.997653 -0.068477 0.000000
vn 0.000000 -0.062956 -0.998016
vn 0.000000 -0.062956 -0.998016
vn 0.000000 -0.062956 -0.998016
vn 0.000000 -0.062956 -0.998016
# 24 vertex normals

g l-arm
s 1
f 4//4 3//3 2//2 1//1
f 5//8 6//7 7//6 8//5
f 7//12 3//11 4//10 8//9
f 6//16 2//15 3//14 7//13
f 5//20 1//19 2//18 6//17
f 8//24 4//23 1//22 5//21
# 6 faces

