# Shade 8 - Wavefront OBJ Exporter

o head.obj

v 0.000000e+00 1.529799e+00 0.000000e+00
v 5.854258e-01 1.413350e+00 0.000000e+00
v 1.081726e+00 1.081733e+00 0.000000e+00
v 1.413343e+00 5.854326e-01 0.000000e+00
v 1.529792e+00 6.835938e-06 0.000000e+00
v 1.413343e+00 -5.854190e-01 0.000000e+00
v 1.081726e+00 -1.081719e+00 0.000000e+00
v 5.854258e-01 -1.413337e+00 0.000000e+00
v 0.000000e+00 -1.529785e+00 0.000000e+00
v 5.408633e-01 1.413350e+00 -2.240332e-01
v 9.993848e-01 1.081733e+00 -4.139590e-01
v 1.305759e+00 5.854326e-01 -5.408633e-01
v 1.413343e+00 6.835938e-06 -5.854258e-01
v 1.305759e+00 -5.854190e-01 -5.408633e-01
v 9.993848e-01 -1.081719e+00 -4.139590e-01
v 5.408628e-01 -1.413337e+00 -2.240332e-01
v 4.139590e-01 1.413350e+00 -4.139590e-01
v 7.648960e-01 1.081733e+00 -7.648956e-01
v 9.993848e-01 5.854326e-01 -9.993838e-01
v 1.081727e+00 6.835938e-06 -1.081726e+00
v 9.993848e-01 -5.854190e-01 -9.993838e-01
v 7.648960e-01 -1.081719e+00 -7.648956e-01
v 4.139585e-01 -1.413337e+00 -4.139580e-01
v 2.240332e-01 1.413350e+00 -5.408633e-01
v 4.139590e-01 1.081733e+00 -9.993848e-01
v 5.408633e-01 5.854326e-01 -1.305759e+00
v 5.854263e-01 6.835938e-06 -1.413343e+00
v 5.408633e-01 -5.854190e-01 -1.305759e+00
v 4.139590e-01 -1.081719e+00 -9.993848e-01
v 2.240327e-01 -1.413337e+00 -5.408633e-01
v 0.000000e+00 1.413350e+00 -5.854258e-01
v 0.000000e+00 1.081733e+00 -1.081727e+00
v 0.000000e+00 5.854326e-01 -1.413344e+00
v 0.000000e+00 6.835938e-06 -1.529792e+00
v 0.000000e+00 -5.854190e-01 -1.413344e+00
v 0.000000e+00 -1.081719e+00 -1.081727e+00
v 0.000000e+00 -1.413337e+00 -5.854258e-01
v -2.240327e-01 1.413350e+00 -5.408633e-01
v -4.139585e-01 1.081733e+00 -9.993848e-01
v -5.408623e-01 5.854326e-01 -1.305759e+00
v -5.854258e-01 6.835938e-06 -1.413344e+00
v -5.408623e-01 -5.854190e-01 -1.305759e+00
v -4.139585e-01 -1.081719e+00 -9.993848e-01
v -2.240327e-01 -1.413337e+00 -5.408633e-01
v -4.139585e-01 1.413350e+00 -4.139590e-01
v -7.648956e-01 1.081733e+00 -7.648956e-01
v -9.993848e-01 5.854326e-01 -9.993848e-01
v -1.081726e+00 6.835938e-06 -1.081727e+00
v -9.993848e-01 -5.854190e-01 -9.993848e-01
v -7.648956e-01 -1.081719e+00 -7.648956e-01
v -4.139585e-01 -1.413337e+00 -4.139590e-01
v -5.408633e-01 1.413350e+00 -2.240332e-01
v -9.993848e-01 1.081733e+00 -4.139590e-01
v -1.305759e+00 5.854326e-01 -5.408633e-01
v -1.413344e+00 6.835938e-06 -5.854258e-01
v -1.305759e+00 -5.854190e-01 -5.408633e-01
v -9.993848e-01 -1.081719e+00 -4.139590e-01
v -5.408633e-01 -1.413337e+00 -2.240332e-01
v -5.854258e-01 1.413350e+00 0.000000e+00
v -1.081727e+00 1.081733e+00 0.000000e+00
v -1.413344e+00 5.854326e-01 0.000000e+00
v -1.529792e+00 6.835938e-06 0.000000e+00
v -1.413344e+00 -5.854190e-01 0.000000e+00
v -1.081727e+00 -1.081719e+00 0.000000e+00
v -5.854258e-01 -1.413337e+00 0.000000e+00
v -5.408633e-01 1.413350e+00 2.240332e-01
v -9.993848e-01 1.081733e+00 4.139590e-01
v -1.305759e+00 5.854326e-01 5.408633e-01
v -1.413344e+00 6.835938e-06 5.854258e-01
v -1.305759e+00 -5.854190e-01 5.408633e-01
v -9.993848e-01 -1.081719e+00 4.139590e-01
v -5.408633e-01 -1.413337e+00 2.240322e-01
v -4.139585e-01 1.413350e+00 4.139590e-01
v -7.648956e-01 1.081733e+00 7.648956e-01
v -9.993848e-01 5.854326e-01 9.993848e-01
v -1.081727e+00 6.835938e-06 1.081727e+00
v -9.993848e-01 -5.854190e-01 9.993848e-01
v -7.648956e-01 -1.081719e+00 7.648956e-01
v -4.139585e-01 -1.413337e+00 4.139590e-01
v -2.240327e-01 1.413350e+00 5.408633e-01
v -4.139590e-01 1.081733e+00 9.993848e-01
v -5.408633e-01 5.854326e-01 1.305759e+00
v -5.854258e-01 6.835938e-06 1.413344e+00
v -5.408633e-01 -5.854190e-01 1.305759e+00
v -4.139590e-01 -1.081719e+00 9.993848e-01
v -2.240327e-01 -1.413337e+00 5.408633e-01
v 0.000000e+00 1.413350e+00 5.854258e-01
v 0.000000e+00 1.081733e+00 1.081727e+00
v 0.000000e+00 5.854326e-01 1.413344e+00
v 0.000000e+00 6.835938e-06 1.529792e+00
v 0.000000e+00 -5.854190e-01 1.413344e+00
v 0.000000e+00 -1.081719e+00 1.081727e+00
v 0.000000e+00 -1.413337e+00 5.854258e-01
v 2.240327e-01 1.413350e+00 5.408633e-01
v 4.139590e-01 1.081733e+00 9.993848e-01
v 5.408633e-01 5.854326e-01 1.305759e+00
v 5.854258e-01 6.835938e-06 1.413344e+00
v 5.408633e-01 -5.854190e-01 1.305759e+00
v 4.139590e-01 -1.081719e+00 9.993848e-01
v 2.240327e-01 -1.413337e+00 5.408633e-01
v 4.139590e-01 1.413350e+00 4.139590e-01
v 7.648956e-01 1.081733e+00 7.648956e-01
v 9.993848e-01 5.854326e-01 9.993848e-01
v 1.081726e+00 6.835938e-06 1.081727e+00
v 9.993848e-01 -5.854190e-01 9.993848e-01
v 7.648956e-01 -1.081719e+00 7.648956e-01
v 4.139585e-01 -1.413337e+00 4.139590e-01
v 5.408633e-01 1.413350e+00 2.240332e-01
v 9.993848e-01 1.081733e+00 4.139590e-01
v 1.305759e+00 5.854326e-01 5.408633e-01
v 1.413343e+00 6.835938e-06 5.854258e-01
v 1.305759e+00 -5.854190e-01 5.408633e-01
v 9.993848e-01 -1.081719e+00 4.139590e-01
v 5.408628e-01 -1.413337e+00 2.240332e-01
# 114 vertices

vn 0.382195 -0.924082 0.000000
vn 0.000000 -1.000000 -0.000000
vn 0.353102 -0.924082 0.146260
vn 0.706585 -0.707629 -0.000000
vn 0.382195 -0.924082 0.000000
vn 0.353102 -0.924082 0.146260
vn 0.652799 -0.707629 0.270398
vn 0.923682 -0.383160 -0.000000
vn 0.706585 -0.707629 -0.000000
vn 0.652799 -0.707629 0.270398
vn 0.853371 -0.383160 0.353478
vn 1.000000 0.000000 0.000000
vn 0.923682 -0.383160 -0.000000
vn 0.853371 -0.383160 0.353478
vn 0.923880 0.000000 0.382683
vn 0.923682 0.383160 -0.000000
vn 1.000000 0.000000 0.000000
vn 0.923880 0.000000 0.382683
vn 0.853371 0.383160 0.353478
vn 0.706585 0.707629 -0.000000
vn 0.923682 0.383160 -0.000000
vn 0.853371 0.383160 0.353478
vn 0.652799 0.707629 0.270398
vn 0.382196 0.924082 0.000000
vn 0.706585 0.707629 -0.000000
vn 0.652799 0.707629 0.270398
vn 0.353103 0.924082 0.146260
vn 0.382196 0.924082 0.000000
vn 0.353103 0.924082 0.146260
vn -0.000000 1.000000 0.000000
vn 0.353102 -0.924082 0.146260
vn 0.000000 -1.000000 -0.000000
vn 0.270253 -0.924082 0.270253
vn 0.652799 -0.707629 0.270398
vn 0.353102 -0.924082 0.146260
vn 0.270253 -0.924082 0.270253
vn 0.499631 -0.707629 0.499631
vn 0.853371 -0.383160 0.353478
vn 0.652799 -0.707629 0.270398
vn 0.499631 -0.707629 0.499631
vn 0.653142 -0.383160 0.653142
vn 0.923880 0.000000 0.382683
vn 0.853371 -0.383160 0.353478
vn 0.653142 -0.383160 0.653142
vn 0.707107 0.000000 0.707107
vn 0.853371 0.383160 0.353478
vn 0.923880 0.000000 0.382683
vn 0.707107 0.000000 0.707107
vn 0.653142 0.383160 0.653142
vn 0.652799 0.707629 0.270398
vn 0.853371 0.383160 0.353478
vn 0.653142 0.383160 0.653142
vn 0.499631 0.707629 0.499631
vn 0.353103 0.924082 0.146260
vn 0.652799 0.707629 0.270398
vn 0.499631 0.707629 0.499631
vn 0.270253 0.924081 0.270253
vn 0.353103 0.924082 0.146260
vn 0.270253 0.924081 0.270253
vn -0.000000 1.000000 0.000000
vn 0.270253 -0.924082 0.270253
vn 0.000000 -1.000000 -0.000000
vn 0.146260 -0.924082 0.353102
vn 0.499631 -0.707629 0.499631
vn 0.270253 -0.924082 0.270253
vn 0.146260 -0.924082 0.353102
vn 0.270399 -0.707629 0.652799
vn 0.653142 -0.383160 0.653142
vn 0.499631 -0.707629 0.499631
vn 0.270399 -0.707629 0.652799
vn 0.353478 -0.383160 0.853371
vn 0.707107 0.000000 0.707107
vn 0.653142 -0.383160 0.653142
vn 0.353478 -0.383160 0.853371
vn 0.382683 0.000000 0.923880
vn 0.653142 0.383160 0.653142
vn 0.707107 0.000000 0.707107
vn 0.382683 0.000000 0.923880
vn 0.353478 0.383160 0.853371
vn 0.499631 0.707629 0.499631
vn 0.653142 0.383160 0.653142
vn 0.353478 0.383160 0.853371
vn 0.270398 0.707629 0.652799
vn 0.270253 0.924081 0.270253
vn 0.499631 0.707629 0.499631
vn 0.270398 0.707629 0.652799
vn 0.146260 0.924082 0.353103
vn 0.270253 0.924081 0.270253
vn 0.146260 0.924082 0.353103
vn -0.000000 1.000000 0.000000
vn 0.146260 -0.924082 0.353102
vn 0.000000 -1.000000 -0.000000
vn 0.000000 -0.924082 0.382195
vn 0.270399 -0.707629 0.652799
vn 0.146260 -0.924082 0.353102
vn 0.000000 -0.924082 0.382195
vn 0.000000 -0.707629 0.706585
vn 0.353478 -0.383160 0.853371
vn 0.270399 -0.707629 0.652799
vn 0.000000 -0.707629 0.706585
vn 0.000000 -0.383160 0.923682
vn 0.382683 0.000000 0.923880
vn 0.353478 -0.383160 0.853371
vn 0.000000 -0.383160 0.923682
vn 0.000000 0.000000 1.000000
vn 0.353478 0.383160 0.853371
vn 0.382683 0.000000 0.923880
vn 0.000000 0.000000 1.000000
vn 0.000000 0.383160 0.923682
vn 0.270398 0.707629 0.652799
vn 0.353478 0.383160 0.853371
vn 0.000000 0.383160 0.923682
vn -0.000000 0.707629 0.706584
vn 0.146260 0.924082 0.353103
vn 0.270398 0.707629 0.652799
vn -0.000000 0.707629 0.706584
vn -0.000000 0.924082 0.382195
vn 0.146260 0.924082 0.353103
vn -0.000000 0.924082 0.382195
vn -0.000000 1.000000 0.000000
vn 0.000000 -0.924082 0.382195
vn 0.000000 -1.000000 -0.000000
vn -0.146260 -0.924082 0.353102
vn 0.000000 -0.707629 0.706585
vn 0.000000 -0.924082 0.382195
vn -0.146260 -0.924082 0.353102
vn -0.270399 -0.707629 0.652799
vn 0.000000 -0.383160 0.923682
vn 0.000000 -0.707629 0.706585
vn -0.270399 -0.707629 0.652799
vn -0.353478 -0.383160 0.853371
vn 0.000000 0.000000 1.000000
vn 0.000000 -0.383160 0.923682
vn -0.353478 -0.383160 0.853371
vn -0.382683 0.000000 0.923880
vn 0.000000 0.383160 0.923682
vn 0.000000 0.000000 1.000000
vn -0.382683 0.000000 0.923880
vn -0.353478 0.383160 0.853371
vn -0.000000 0.707629 0.706584
vn 0.000000 0.383160 0.923682
vn -0.353478 0.383160 0.853371
vn -0.270399 0.707629 0.652799
vn -0.000000 0.924082 0.382195
vn -0.000000 0.707629 0.706584
vn -0.270399 0.707629 0.652799
vn -0.146260 0.924082 0.353102
vn -0.000000 0.924082 0.382195
vn -0.146260 0.924082 0.353102
vn -0.000000 1.000000 0.000000
vn -0.146260 -0.924082 0.353102
vn 0.000000 -1.000000 -0.000000
vn -0.270253 -0.924082 0.270253
vn -0.270399 -0.707629 0.652799
vn -0.146260 -0.924082 0.353102
vn -0.270253 -0.924082 0.270253
vn -0.499631 -0.707629 0.499631
vn -0.353478 -0.383160 0.853371
vn -0.270399 -0.707629 0.652799
vn -0.499631 -0.707629 0.499631
vn -0.653142 -0.383160 0.653142
vn -0.382683 0.000000 0.923880
vn -0.353478 -0.383160 0.853371
vn -0.653142 -0.383160 0.653142
vn -0.707107 0.000000 0.707107
vn -0.353478 0.383160 0.853371
vn -0.382683 0.000000 0.923880
vn -0.707107 0.000000 0.707107
vn -0.653142 0.383160 0.653142
vn -0.270399 0.707629 0.652799
vn -0.353478 0.383160 0.853371
vn -0.653142 0.383160 0.653142
vn -0.499631 0.707629 0.499631
vn -0.146260 0.924082 0.353102
vn -0.270399 0.707629 0.652799
vn -0.499631 0.707629 0.499631
vn -0.270253 0.924081 0.270253
vn -0.146260 0.924082 0.353102
vn -0.270253 0.924081 0.270253
vn -0.000000 1.000000 0.000000
vn -0.270253 -0.924082 0.270253
vn 0.000000 -1.000000 -0.000000
vn -0.353102 -0.924082 0.146260
vn -0.499631 -0.707629 0.499631
vn -0.270253 -0.924082 0.270253
vn -0.353102 -0.924082 0.146260
vn -0.652799 -0.707629 0.270399
vn -0.653142 -0.383160 0.653142
vn -0.499631 -0.707629 0.499631
vn -0.652799 -0.707629 0.270399
vn -0.853371 -0.383160 0.353478
vn -0.707107 0.000000 0.707107
vn -0.653142 -0.383160 0.653142
vn -0.853371 -0.383160 0.353478
vn -0.923880 0.000000 0.382683
vn -0.653142 0.383160 0.653142
vn -0.707107 0.000000 0.707107
vn -0.923880 0.000000 0.382683
vn -0.853371 0.383160 0.353478
vn -0.499631 0.707629 0.499631
vn -0.653142 0.383160 0.653142
vn -0.853371 0.383160 0.353478
vn -0.652799 0.707629 0.270399
vn -0.270253 0.924081 0.270253
vn -0.499631 0.707629 0.499631
vn -0.652799 0.707629 0.270399
vn -0.353102 0.924082 0.146260
vn -0.270253 0.924081 0.270253
vn -0.353102 0.924082 0.146260
vn -0.000000 1.000000 0.000000
vn -0.353102 -0.924082 0.146260
vn 0.000000 -1.000000 -0.000000
vn -0.382195 -0.924082 0.000000
vn -0.652799 -0.707629 0.270399
vn -0.353102 -0.924082 0.146260
vn -0.382195 -0.924082 0.000000
vn -0.706585 -0.707629 0.000000
vn -0.853371 -0.383160 0.353478
vn -0.652799 -0.707629 0.270399
vn -0.706585 -0.707629 0.000000
vn -0.923682 -0.383160 0.000000
vn -0.923880 0.000000 0.382683
vn -0.853371 -0.383160 0.353478
vn -0.923682 -0.383160 0.000000
vn -1.000000 0.000000 0.000000
vn -0.853371 0.383160 0.353478
vn -0.923880 0.000000 0.382683
vn -1.000000 0.000000 0.000000
vn -0.923682 0.383160 0.000000
vn -0.652799 0.707629 0.270399
vn -0.853371 0.383160 0.353478
vn -0.923682 0.383160 0.000000
vn -0.706584 0.707629 0.000000
vn -0.353102 0.924082 0.146260
vn -0.652799 0.707629 0.270399
vn -0.706584 0.707629 0.000000
vn -0.382195 0.924082 0.000000
vn -0.353102 0.924082 0.146260
vn -0.382195 0.924082 0.000000
vn -0.000000 1.000000 0.000000
vn -0.382195 -0.924082 0.000000
vn 0.000000 -1.000000 -0.000000
vn -0.353102 -0.924082 -0.146260
vn -0.706585 -0.707629 0.000000
vn -0.382195 -0.924082 0.000000
vn -0.353102 -0.924082 -0.146260
vn -0.652799 -0.707629 -0.270399
vn -0.923682 -0.383160 0.000000
vn -0.706585 -0.707629 0.000000
vn -0.652799 -0.707629 -0.270399
vn -0.853371 -0.383160 -0.353478
vn -1.000000 0.000000 0.000000
vn -0.923682 -0.383160 0.000000
vn -0.853371 -0.383160 -0.353478
vn -0.923879 0.000000 -0.382684
vn -0.923682 0.383160 0.000000
vn -1.000000 0.000000 0.000000
vn -0.923879 0.000000 -0.382684
vn -0.853371 0.383160 -0.353478
vn -0.706584 0.707629 0.000000
vn -0.923682 0.383160 0.000000
vn -0.853371 0.383160 -0.353478
vn -0.652799 0.707629 -0.270399
vn -0.382195 0.924082 0.000000
vn -0.706584 0.707629 0.000000
vn -0.652799 0.707629 -0.270399
vn -0.353102 0.924082 -0.146260
vn -0.382195 0.924082 0.000000
vn -0.353102 0.924082 -0.146260
vn -0.000000 1.000000 0.000000
vn -0.353102 -0.924082 -0.146260
vn 0.000000 -1.000000 -0.000000
vn -0.270253 -0.924081 -0.270253
vn -0.652799 -0.707629 -0.270399
vn -0.353102 -0.924082 -0.146260
vn -0.270253 -0.924081 -0.270253
vn -0.499631 -0.707628 -0.499631
vn -0.853371 -0.383160 -0.353478
vn -0.652799 -0.707629 -0.270399
vn -0.499631 -0.707628 -0.499631
vn -0.653141 -0.383160 -0.653142
vn -0.923879 0.000000 -0.382684
vn -0.853371 -0.383160 -0.353478
vn -0.653141 -0.383160 -0.653142
vn -0.707107 0.000000 -0.707107
vn -0.853371 0.383160 -0.353478
vn -0.923879 0.000000 -0.382684
vn -0.707107 0.000000 -0.707107
vn -0.653141 0.383160 -0.653142
vn -0.652799 0.707629 -0.270399
vn -0.853371 0.383160 -0.353478
vn -0.653141 0.383160 -0.653142
vn -0.499630 0.707629 -0.499631
vn -0.353102 0.924082 -0.146260
vn -0.652799 0.707629 -0.270399
vn -0.499630 0.707629 -0.499631
vn -0.270253 0.924081 -0.270253
vn -0.353102 0.924082 -0.146260
vn -0.270253 0.924081 -0.270253
vn -0.000000 1.000000 0.000000
vn -0.270253 -0.924081 -0.270253
vn 0.000000 -1.000000 -0.000000
vn -0.146260 -0.924082 -0.353102
vn -0.499631 -0.707628 -0.499631
vn -0.270253 -0.924081 -0.270253
vn -0.146260 -0.924082 -0.353102
vn -0.270399 -0.707628 -0.652799
vn -0.653141 -0.383160 -0.653142
vn -0.499631 -0.707628 -0.499631
vn -0.270399 -0.707628 -0.652799
vn -0.353478 -0.383160 -0.853371
vn -0.707107 0.000000 -0.707107
vn -0.653141 -0.383160 -0.653142
vn -0.353478 -0.383160 -0.853371
vn -0.382683 0.000000 -0.923880
vn -0.653141 0.383160 -0.653142
vn -0.707107 0.000000 -0.707107
vn -0.382683 0.000000 -0.923880
vn -0.353478 0.383160 -0.853371
vn -0.499630 0.707629 -0.499631
vn -0.653141 0.383160 -0.653142
vn -0.353478 0.383160 -0.853371
vn -0.270398 0.707629 -0.652799
vn -0.270253 0.924081 -0.270253
vn -0.499630 0.707629 -0.499631
vn -0.270398 0.707629 -0.652799
vn -0.146260 0.924082 -0.353102
vn -0.270253 0.924081 -0.270253
vn -0.146260 0.924082 -0.353102
vn -0.000000 1.000000 0.000000
vn -0.146260 -0.924082 -0.353102
vn 0.000000 -1.000000 -0.000000
vn -0.000000 -0.924082 -0.382195
vn -0.270399 -0.707628 -0.652799
vn -0.146260 -0.924082 -0.353102
vn -0.000000 -0.924082 -0.382195
vn -0.000000 -0.707629 -0.706585
vn -0.353478 -0.383160 -0.853371
vn -0.270399 -0.707628 -0.652799
vn -0.000000 -0.707629 -0.706585
vn 0.000000 -0.383160 -0.923682
vn -0.382683 0.000000 -0.923880
vn -0.353478 -0.383160 -0.853371
vn 0.000000 -0.383160 -0.923682
vn 0.000000 0.000000 -1.000000
vn -0.353478 0.383160 -0.853371
vn -0.382683 0.000000 -0.923880
vn 0.000000 0.000000 -1.000000
vn 0.000000 0.383160 -0.923682
vn -0.270398 0.707629 -0.652799
vn -0.353478 0.383160 -0.853371
vn 0.000000 0.383160 -0.923682
vn -0.000000 0.707629 -0.706584
vn -0.146260 0.924082 -0.353102
vn -0.270398 0.707629 -0.652799
vn -0.000000 0.707629 -0.706584
vn -0.000000 0.924082 -0.382195
vn -0.146260 0.924082 -0.353102
vn -0.000000 0.924082 -0.382195
vn -0.000000 1.000000 0.000000
vn -0.000000 -0.924082 -0.382195
vn 0.000000 -1.000000 -0.000000
vn 0.146260 -0.924082 -0.353102
vn -0.000000 -0.707629 -0.706585
vn -0.000000 -0.924082 -0.382195
vn 0.146260 -0.924082 -0.353102
vn 0.270399 -0.707629 -0.652799
vn 0.000000 -0.383160 -0.923682
vn -0.000000 -0.707629 -0.706585
vn 0.270399 -0.707629 -0.652799
vn 0.353479 -0.383160 -0.853371
vn 0.000000 0.000000 -1.000000
vn 0.000000 -0.383160 -0.923682
vn 0.353479 -0.383160 -0.853371
vn 0.382684 0.000000 -0.923879
vn 0.000000 0.383160 -0.923682
vn 0.000000 0.000000 -1.000000
vn 0.382684 0.000000 -0.923879
vn 0.353479 0.383160 -0.853371
vn -0.000000 0.707629 -0.706584
vn 0.000000 0.383160 -0.923682
vn 0.353479 0.383160 -0.853371
vn 0.270399 0.707629 -0.652799
vn -0.000000 0.924082 -0.382195
vn -0.000000 0.707629 -0.706584
vn 0.270399 0.707629 -0.652799
vn 0.146260 0.924082 -0.353102
vn -0.000000 0.924082 -0.382195
vn 0.146260 0.924082 -0.353102
vn -0.000000 1.000000 0.000000
vn 0.146260 -0.924082 -0.353102
vn 0.000000 -1.000000 -0.000000
vn 0.270253 -0.924082 -0.270253
vn 0.270399 -0.707629 -0.652799
vn 0.146260 -0.924082 -0.353102
vn 0.270253 -0.924082 -0.270253
vn 0.499631 -0.707628 -0.499631
vn 0.353479 -0.383160 -0.853371
vn 0.270399 -0.707629 -0.652799
vn 0.499631 -0.707628 -0.499631
vn 0.653142 -0.383160 -0.653142
vn 0.382684 0.000000 -0.923879
vn 0.353479 -0.383160 -0.853371
vn 0.653142 -0.383160 -0.653142
vn 0.707107 0.000000 -0.707107
vn 0.353479 0.383160 -0.853371
vn 0.382684 0.000000 -0.923879
vn 0.707107 0.000000 -0.707107
vn 0.653142 0.383160 -0.653142
vn 0.270399 0.707629 -0.652799
vn 0.353479 0.383160 -0.853371
vn 0.653142 0.383160 -0.653142
vn 0.499631 0.707628 -0.499631
vn 0.146260 0.924082 -0.353102
vn 0.270399 0.707629 -0.652799
vn 0.499631 0.707628 -0.499631
vn 0.270253 0.924081 -0.270253
vn 0.146260 0.924082 -0.353102
vn 0.270253 0.924081 -0.270253
vn -0.000000 1.000000 0.000000
vn 0.270253 -0.924082 -0.270253
vn 0.000000 -1.000000 -0.000000
vn 0.353102 -0.924082 -0.146260
vn 0.499631 -0.707628 -0.499631
vn 0.270253 -0.924082 -0.270253
vn 0.353102 -0.924082 -0.146260
vn 0.652799 -0.707629 -0.270398
vn 0.653142 -0.383160 -0.653142
vn 0.499631 -0.707628 -0.499631
vn 0.652799 -0.707629 -0.270398
vn 0.853371 -0.383160 -0.353478
vn 0.707107 0.000000 -0.707107
vn 0.653142 -0.383160 -0.653142
vn 0.853371 -0.383160 -0.353478
vn 0.923879 0.000000 -0.382684
vn 0.653142 0.383160 -0.653142
vn 0.707107 0.000000 -0.707107
vn 0.923879 0.000000 -0.382684
vn 0.853371 0.383160 -0.353478
vn 0.499631 0.707628 -0.499631
vn 0.653142 0.383160 -0.653142
vn 0.853371 0.383160 -0.353478
vn 0.652799 0.707629 -0.270398
vn 0.270253 0.924081 -0.270253
vn 0.499631 0.707628 -0.499631
vn 0.652799 0.707629 -0.270398
vn 0.353103 0.924082 -0.146260
vn 0.270253 0.924081 -0.270253
vn 0.353103 0.924082 -0.146260
vn -0.000000 1.000000 0.000000
vn 0.353102 -0.924082 -0.146260
vn 0.000000 -1.000000 -0.000000
vn 0.382195 -0.924082 0.000000
vn 0.652799 -0.707629 -0.270398
vn 0.353102 -0.924082 -0.146260
vn 0.382195 -0.924082 0.000000
vn 0.706585 -0.707629 -0.000000
vn 0.853371 -0.383160 -0.353478
vn 0.652799 -0.707629 -0.270398
vn 0.706585 -0.707629 -0.000000
vn 0.923682 -0.383160 -0.000000
vn 0.923879 0.000000 -0.382684
vn 0.853371 -0.383160 -0.353478
vn 0.923682 -0.383160 -0.000000
vn 1.000000 0.000000 0.000000
vn 0.853371 0.383160 -0.353478
vn 0.923879 0.000000 -0.382684
vn 1.000000 0.000000 0.000000
vn 0.923682 0.383160 -0.000000
vn 0.652799 0.707629 -0.270398
vn 0.853371 0.383160 -0.353478
vn 0.923682 0.383160 -0.000000
vn 0.706585 0.707629 -0.000000
vn 0.353103 0.924082 -0.146260
vn 0.652799 0.707629 -0.270398
vn 0.706585 0.707629 -0.000000
vn 0.382196 0.924082 0.000000
vn 0.353103 0.924082 -0.146260
vn 0.382196 0.924082 0.000000
vn -0.000000 1.000000 0.000000
# 480 vertex normals

g head
s 1
f 114//3 9//2 8//1
f 113//7 114//6 8//5 7//4
f 112//11 113//10 7//9 6//8
f 111//15 112//14 6//13 5//12
f 110//19 111//18 5//17 4//16
f 109//23 110//22 4//21 3//20
f 108//27 109//26 3//25 2//24
f 1//30 108//29 2//28
f 107//33 9//32 114//31
f 106//37 107//36 114//35 113//34
f 105//41 106//40 113//39 112//38
f 104//45 105//44 112//43 111//42
f 103//49 104//48 111//47 110//46
f 102//53 103//52 110//51 109//50
f 101//57 102//56 109//55 108//54
f 1//60 101//59 108//58
f 100//63 9//62 107//61
f 99//67 100//66 107//65 106//64
f 98//71 99//70 106//69 105//68
f 97//75 98//74 105//73 104//72
f 96//79 97//78 104//77 103//76
f 95//83 96//82 103//81 102//80
f 94//87 95//86 102//85 101//84
f 1//90 94//89 101//88
f 93//93 9//92 100//91
f 92//97 93//96 100//95 99//94
f 91//101 92//100 99//99 98//98
f 90//105 91//104 98//103 97//102
f 89//109 90//108 97//107 96//106
f 88//113 89//112 96//111 95//110
f 87//117 88//116 95//115 94//114
f 1//120 87//119 94//118
f 86//123 9//122 93//121
f 85//127 86//126 93//125 92//124
f 84//131 85//130 92//129 91//128
f 83//135 84//134 91//133 90//132
f 82//139 83//138 90//137 89//136
f 81//143 82//142 89//141 88//140
f 80//147 81//146 88//145 87//144
f 1//150 80//149 87//148
f 79//153 9//152 86//151
f 78//157 79//156 86//155 85//154
f 77//161 78//160 85//159 84//158
f 76//165 77//164 84//163 83//162
f 75//169 76//168 83//167 82//166
f 74//173 75//172 82//171 81//170
f 73//177 74//176 81//175 80//174
f 1//180 73//179 80//178
f 72//183 9//182 79//181
f 71//187 72//186 79//185 78//184
f 70//191 71//190 78//189 77//188
f 69//195 70//194 77//193 76//192
f 68//199 69//198 76//197 75//196
f 67//203 68//202 75//201 74//200
f 66//207 67//206 74//205 73//204
f 1//210 66//209 73//208
f 65//213 9//212 72//211
f 64//217 65//216 72//215 71//214
f 63//221 64//220 71//219 70//218
f 62//225 63//224 70//223 69//222
f 61//229 62//228 69//227 68//226
f 60//233 61//232 68//231 67//230
f 59//237 60//236 67//235 66//234
f 1//240 59//239 66//238
f 58//243 9//242 65//241
f 57//247 58//246 65//245 64//244
f 56//251 57//250 64//249 63//248
f 55//255 56//254 63//253 62//252
f 54//259 55//258 62//257 61//256
f 53//263 54//262 61//261 60//260
f 52//267 53//266 60//265 59//264
f 1//270 52//269 59//268
f 51//273 9//272 58//271
f 50//277 51//276 58//275 57//274
f 49//281 50//280 57//279 56//278
f 48//285 49//284 56//283 55//282
f 47//289 48//288 55//287 54//286
f 46//293 47//292 54//291 53//290
f 45//297 46//296 53//295 52//294
f 1//300 45//299 52//298
f 44//303 9//302 51//301
f 43//307 44//306 51//305 50//304
f 42//311 43//310 50//309 49//308
f 41//315 42//314 49//313 48//312
f 40//319 41//318 48//317 47//316
f 39//323 40//322 47//321 46//320
f 38//327 39//326 46//325 45//324
f 1//330 38//329 45//328
f 37//333 9//332 44//331
f 36//337 37//336 44//335 43//334
f 35//341 36//340 43//339 42//338
f 34//345 35//344 42//343 41//342
f 33//349 34//348 41//347 40//346
f 32//353 33//352 40//351 39//350
f 31//357 32//356 39//355 38//354
f 1//360 31//359 38//358
f 30//363 9//362 37//361
f 29//367 30//366 37//365 36//364
f 28//371 29//370 36//369 35//368
f 27//375 28//374 35//373 34//372
f 26//379 27//378 34//377 33//376
f 25//383 26//382 33//381 32//380
f 24//387 25//386 32//385 31//384
f 1//390 24//389 31//388
f 23//393 9//392 30//391
f 22//397 23//396 30//395 29//394
f 21//401 22//400 29//399 28//398
f 20//405 21//404 28//403 27//402
f 19//409 20//408 27//407 26//406
f 18//413 19//412 26//411 25//410
f 17//417 18//416 25//415 24//414
f 1//420 17//419 24//418
f 16//423 9//422 23//421
f 15//427 16//426 23//425 22//424
f 14//431 15//430 22//429 21//428
f 13//435 14//434 21//433 20//432
f 12//439 13//438 20//437 19//436
f 11//443 12//442 19//441 18//440
f 10//447 11//446 18//445 17//444
f 1//450 10//449 17//448
f 8//453 9//452 16//451
f 7//457 8//456 16//455 15//454
f 6//461 7//460 15//459 14//458
f 5//465 6//464 14//463 13//462
f 4//469 5//468 13//467 12//466
f 3//473 4//472 12//471 11//470
f 2//477 3//476 11//475 10//474
f 1//480 2//479 10//478
# 128 faces

