# Shade 8 - Wavefront OBJ Exporter

o leg.obj

v 9.940196e-01 4.002980e+00 -1.000000e+00
v 9.940196e-01 4.002980e+00 1.000000e+00
v -1.005972e+00 3.997004e+00 1.000000e+00
v -1.005972e+00 3.997004e+00 -1.000000e+00
v 5.851713e-01 1.739502e-03 -6.132686e-01
v 5.851713e-01 1.739502e-03 6.132686e-01
v -5.732192e-01 -1.721924e-03 6.132686e-01
v -5.732192e-01 -1.721924e-03 -6.132686e-01
# 8 vertices

vn -0.002988 0.999996 0.000000
vn -0.002988 0.999996 0.000000
vn -0.002988 0.999996 0.000000
vn -0.002988 0.999996 0.000000
vn 0.002988 -0.999996 0.000000
vn 0.002988 -0.999996 0.000000
vn 0.002988 -0.999996 0.000000
vn 0.002988 -0.999996 0.000000
vn -0.994195 -0.107594 0.000000
vn -0.994195 -0.107594 0.000000
vn -0.994195 -0.107594 0.000000
vn -0.994195 -0.107594 0.000000
vn 0.000288 -0.096234 0.995359
vn 0.000288 -0.096234 0.995359
vn 0.000288 -0.096234 0.995359
vn 0.000288 -0.096234 0.995359
vn 0.994820 -0.101651 0.000000
vn 0.994820 -0.101651 0.000000
vn 0.994820 -0.101651 0.000000
vn 0.994820 -0.101651 0.000000
vn 0.000288 -0.096234 -0.995359
vn 0.000288 -0.096234 -0.995359
vn 0.000288 -0.096234 -0.995359
vn 0.000288 -0.096234 -0.995359
# 24 vertex normals

g l-leg
s 1
f 4//4 3//3 2//2 1//1
f 5//8 6//7 7//6 8//5
f 7//12 3//11 4//10 8//9
f 6//16 2//15 3//14 7//13
f 5//20 1//19 2//18 6//17
f 8//24 4//23 1//22 5//21
# 6 faces

